<svg width="30" height="42" viewBox="0 0 30 42" fill="none" xmlns="http://www.w3.org/2000/svg">
<path d="M18.6094 30.9961C18.8672 31.2539 19.1953 31.3945 19.582 31.3945C20.3555 31.3945 20.9766 30.7852 20.9766 30.0117C20.9766 29.625 20.8125 29.2734 20.543 29.0039L12.3398 20.9883L20.543 12.9961C20.8125 12.7266 20.9766 12.3633 20.9766 11.9883C20.9766 11.2148 20.3555 10.6055 19.582 10.6055C19.1953 10.6055 18.8672 10.7461 18.6094 11.0039L9.49219 19.9102C9.16406 20.2148 9.01172 20.5898 9 21C9 21.4102 9.16406 21.7617 9.49219 22.0781L18.6094 30.9961Z" fill="#343434"/>
</svg>
